HIERARCHY
ROOT Hips
{
 OFFSET 0.000000 0.000000 0.000000
 CHANNELS 6 Xposition Yposition Zposition Yrotation Xrotation Zrotation
 JOINT Chest
 {
  OFFSET 0.000000 10.080317 -0.001081
  CHANNELS 3 Yrotation Xrotation Zrotation
  JOINT Chest2
  {
   OFFSET 0.000000 11.096852 0.001963
   CHANNELS 3 Yrotation Xrotation Zrotation
   JOINT Chest3
   {
    OFFSET 0.000000 10.026525 0.000000
    CHANNELS 3 Yrotation Xrotation Zrotation
    JOINT Chest4
    {
     OFFSET 0.000000 10.026525 0.000000
     CHANNELS 3 Yrotation Xrotation Zrotation
     JOINT Neck
     {
      OFFSET 0.000000 14.108171 0.000000
      CHANNELS 3 Yrotation Xrotation Zrotation
      JOINT Head
      {
       OFFSET 0.000000 9.333493 0.004668
       CHANNELS 3 Yrotation Xrotation Zrotation
       End Site
       {
        OFFSET 0.000000 17.851786 0.002438
       }
      }
     }
     JOINT RightCollar
     {
      OFFSET -3.071622 7.873185 0.000000
      CHANNELS 3 Yrotation Xrotation Zrotation
      JOINT RightShoulder
      {
       OFFSET -14.378659 0.000000 0.000000
       CHANNELS 3 Yrotation Xrotation Zrotation
       JOINT RightElbow
       {
        OFFSET -30.778728 0.000000 0.000000
        CHANNELS 3 Yrotation Xrotation Zrotation
        JOINT RightWrist
        {
         OFFSET -25.164217 0.000000 0.000000
         CHANNELS 3 Yrotation Xrotation Zrotation
         End Site
         {
          OFFSET -18.796788 0.000000 0.000000
         }
        }
       }
      }
     }
     JOINT LeftCollar
     {
      OFFSET 3.071622 7.873185 0.000000
      CHANNELS 3 Yrotation Xrotation Zrotation
      JOINT LeftShoulder
      {
       OFFSET 14.378659 0.000000 0.000000
       CHANNELS 3 Yrotation Xrotation Zrotation
       JOINT LeftElbow
       {
        OFFSET 30.778728 0.000000 0.000000
        CHANNELS 3 Yrotation Xrotation Zrotation
        JOINT LeftWrist
        {
         OFFSET 25.164217 0.000000 0.000000
         CHANNELS 3 Yrotation Xrotation Zrotation
         End Site
         {
          OFFSET 18.796788 0.000000 0.000000
         }
        }
       }
      }
     }
    }
   }
  }
 }
 JOINT RightHip
 {
  OFFSET -8.194923 0.005295 0.000540
  CHANNELS 3 Yrotation Xrotation Zrotation
  JOINT RightKnee
  {
   OFFSET 0.000000 -42.473320 -0.000511
   CHANNELS 3 Yrotation Xrotation Zrotation
   JOINT RightAnkle
   {
    OFFSET 0.000000 -41.474259 -0.000865
    CHANNELS 3 Yrotation Xrotation Zrotation
    JOINT RightToe
    {
     OFFSET 0.000000 -7.354994 16.712725
     CHANNELS 3 Yrotation Xrotation Zrotation
     End Site
     {
      OFFSET 0.000000 -1.553903 6.764158
     }
    }
   }
  }
 }
 JOINT LeftHip
 {
  OFFSET 8.194923 0.005295 0.000540
  CHANNELS 3 Yrotation Xrotation Zrotation
  JOINT LeftKnee
  {
   OFFSET 0.000000 -42.473320 -0.000511
   CHANNELS 3 Yrotation Xrotation Zrotation
   JOINT LeftAnkle
   {
    OFFSET 0.000000 -41.474259 -0.000865
    CHANNELS 3 Yrotation Xrotation Zrotation
    JOINT LeftToe
    {
     OFFSET 0.000000 -7.354994 16.712725
     CHANNELS 3 Yrotation Xrotation Zrotation
     End Site
     {
      OFFSET 0.000000 -1.553903 6.764158
     }
    }
   }
  }
 }
}
MOTION
Frames: 12
Frame Time: 0.016667
-26.618495 84.731941 158.994222 -27.723717 -13.012186 -1.388478 -12.990136 5.228928 -6.454805 -5.704582 2.515455 -2.409720 -5.704582 2.515455 -2.409720 -4.267905 1.909312 -1.783690 8.317334 23.141171 5.559535 13.497194 6.642307 7.804696 2.761866 -11.920037 2.434629 23.604819 -36.525144 44.636981 102.855056 -11.438329 29.080893 1.946193 1.840205 -9.331929 -23.582376 -10.347190 -0.821852 -37.181763 -63.438875 5.972501 -9.355246 7.154091 -6.046684 -3.417865 2.146515 7.746896 0.503702 -25.180377 16.795272 16.796965 35.815057 4.191245 7.955337 8.804983 -3.485659 -0.336919 -2.167404 -0.980383 24.745648 12.077678 13.027648 8.404014 37.330535 -15.209556 12.592496 -30.050233 6.898404 1.616476 -6.829027 -8.886060
-26.626082 84.770368 159.179523 -27.140122 -12.880971 -1.504015 -12.837052 5.316599 -6.192430 -5.644589 2.522472 -2.321699 -5.644589 2.522472 -2.321699 -4.223243 1.913519 -1.717855 8.033797 23.141669 5.401351 13.029086 6.651299 7.595071 2.839756 -11.916662 2.306099 23.451964 -36.670095 44.924625 102.991268 -11.494547 29.050444 2.042042 1.775228 -9.615260 -23.965801 -10.660551 -1.128049 -37.107797 -63.614977 5.420927 -9.253770 7.059752 -5.916210 -3.357323 2.086392 7.703231 0.534271 -25.217452 16.495198 16.395969 35.678039 4.063318 7.916221 8.780471 -3.057298 -0.313973 -2.097310 -1.041682 24.392485 12.185122 12.976124 8.408626 36.957001 -15.106669 12.661327 -29.727873 6.604467 1.577693 -7.087953 -8.685521
-26.565800 84.931870 159.351143 -26.260662 -12.711784 -1.508275 -12.881793 5.265232 -6.078103 -5.586603 2.525289 -2.238026 -5.586603 2.525289 -2.238026 -4.180089 1.914641 -1.655314 7.803425 23.129156 5.272684 12.648516 6.634541 7.423625 2.963431 -11.896629 2.160793 23.236950 -36.794874 45.119348 103.166854 -11.505562 29.095933 2.077011 1.829023 -9.863269 -24.328880 -10.811920 -1.428649 -36.780707 -63.499020 4.653633 -9.350117 6.940510 -5.877220 -3.269306 2.067597 7.712641 0.370503 -25.058843 16.046072 15.951106 35.331652 3.769513 7.929883 8.832046 -2.696805 -0.334202 -2.096548 -1.011408 23.624643 12.343099 12.594711 8.730871 36.519900 -14.657512 12.454064 -29.616175 6.439025 1.597235 -7.013876 -8.562311
-26.565183 85.145529 159.526365 -25.195857 -12.521360 -1.548164 -12.978735 5.194547 -5.975315 -5.500677 2.539187 -2.179250 -5.500677 2.539187 -2.179250 -4.115836 1.924215 -1.611457 7.564081 23.039849 5.191081 12.237673 6.472718 7.334166 2.881624 -11.924078 2.142930 23.322773 -36.798384 45.069185 103.314843 -11.464451 28.975207 2.166249 1.855316 -10.142970 -24.624532 -10.761639 -1.468486 -36.387595 -63.285034 3.616410 -9.820324 6.864737 -5.975106 -3.118838 2.102725 7.709901 0.254985 -24.895295 15.591351 15.758887 34.862106 3.589320 7.540518 8.908186 -2.459715 -0.361596 -2.106747 -0.836287 22.595480 12.533607 12.138271 9.195513 35.964587 -14.123737 12.052024 -29.498760 6.346285 1.810997 -6.828672 -8.418888
-26.516809 85.351628 159.665839 -24.225793 -12.379543 -1.487149 -12.866624 5.211415 -5.890710 -5.395399 2.570467 -2.115952 -5.395399 2.570467 -2.115952 -4.037024 1.946734 -1.564135 7.275724 22.879503 5.127760 11.732124 6.178262 7.286751 2.749673 -12.160666 2.005961 23.510103 -36.745028 44.929923 103.403661 -11.369505 28.670894 2.286834 1.847551 -10.467478 -24.798396 -10.820972 -1.392803 -35.944220 -63.185160 2.211093 -10.796416 6.896246 -6.180096 -2.951368 2.105325 7.827818 0.597358 -24.738898 14.976483 15.561292 34.383482 3.501878 6.871191 8.835777 -2.368933 -0.328553 -2.017041 -0.561083 21.827267 12.828591 11.679358 9.396302 35.242511 -13.680058 11.888143 -29.231106 6.284269 1.805945 -6.736570 -8.354466
-26.482494 85.546525 159.786152 -23.140577 -12.243126 -1.407265 -12.821020 5.246829 -5.753429 -5.316330 2.591435 -2.039020 -5.316330 2.591435 -2.039020 -3.977969 1.961511 -1.506582 6.953692 22.679618 4.961684 11.192864 5.815839 7.062306 2.704158 -12.505047 1.788821 23.747613 -36.643494 44.641578 103.692642 -11.202976 28.209735 2.334341 1.921420 -10.632934 -24.664719 -10.985404 -1.370029 -35.354747 -63.412240 0.491056 -12.581190 6.815150 -6.780037 -2.836293 2.128656 8.163559 0.776230 -24.512502 14.331602 15.207257 33.836890 3.285476 6.396080 8.685820 -2.266285 -0.324489 -1.845874 -0.341266 21.211330 13.177065 11.242462 9.321126 34.339559 -13.332974 11.608917 -28.962680 6.252393 1.855314 -6.559981 -8.169010
-26.448343 85.734349 159.902705 -22.026233 -12.119648 -1.313525 -12.710192 5.314621 -5.607010 -5.252196 2.594353 -1.959757 -5.252196 2.594353 -1.959757 -3.930198 1.962799 -1.447383 6.575085 22.495618 4.839219 10.539944 5.480542 6.934041 2.806037 -12.896539 1.536307 23.774488 -36.655667 44.375272 104.048669 -11.132256 27.771600 2.322397 1.926931 -10.742500 -24.328732 -11.203302 -1.423841 -34.674756 -63.776543 -1.476727 -15.210338 6.579800 -7.789730 -2.801471 2.261356 9.064642 0.764972 -24.225466 13.710683 14.902094 33.295945 3.070585 5.989157 8.472136 -2.163323 -0.297530 -1.644651 -0.196912 20.743862 13.563363 10.859649 9.034046 33.333050 -13.060788 11.586261 -28.672883 6.074410 1.803016 -6.362553 -7.934848
-26.428148 85.998443 159.992472 -20.914718 -11.920150 -1.335180 -12.457495 5.337748 -5.319519 -5.183193 2.586621 -1.885511 -5.183193 2.586621 -1.885511 -3.878794 1.956142 -1.392061 6.169266 22.307364 4.719731 9.836742 5.137496 6.820066 2.862660 -13.249605 1.396998 23.654782 -36.752033 44.132777 104.518292 -11.212552 27.394451 2.383646 1.979215 -10.919989 -23.967510 -11.469805 -1.514407 -33.746725 -64.137855 -3.859827 -18.612892 6.364285 -9.095345 -2.572640 2.759919 10.237373 0.713008 -23.984694 13.219816 14.649005 32.685689 2.864868 5.550703 8.165752 -1.956115 -0.280654 -1.331869 -0.145366 20.398495 13.864863 10.594749 8.602646 32.181160 -12.852066 11.550839 -28.341527 5.961739 1.616163 -6.136763 -7.674422
-26.406341 86.213026 160.092964 -19.705372 -11.740091 -1.316986 -12.212289 5.375924 -5.073582 -5.108354 2.579042 -1.809788 -5.108354 2.579042 -1.809788 -3.823017 1.949587 -1.335652 5.782661 22.127005 4.559323 9.179506 4.810799 6.629054 3.002102 -13.624509 1.259952 23.405475 -36.945201 43.995541 105.143149 -11.246528 26.951286 2.438615 2.083153 -11.134332 -23.433567 -11.841560 -1.654736 -32.656148 -64.319083 -6.770345 -22.402279 6.236759 -10.407142 -2.562411 3.116858 11.537908 0.635039 -23.660236 12.645176 14.440174 31.959790 2.637081 4.997286 8.012835 -1.685064 -0.201277 -1.139792 -0.107250 19.874848 14.236267 10.238272 8.148358 30.968276 -12.621336 11.580521 -28.083428 5.770185 1.436510 -5.803927 -7.349319
-26.333673 86.406372 160.138617 -18.215845 -11.383469 -1.299157 -12.144892 5.198224 -4.799988 -5.010720 2.560800 -1.728074 -5.010720 2.560800 -1.728074 -3.750205 1.934938 -1.274933 5.384005 21.964009 4.422539 8.494047 4.515554 6.486316 3.125626 -13.876112 1.180739 23.137550 -37.119612 43.885946 105.894950 -11.322287 26.416075 2.488375 2.140868 -11.340867 -22.883581 -12.339785 -1.897902 -31.294918 -64.303448 -10.179338 -26.517915 5.929295 -11.809815 -2.581272 3.548229 12.772817 0.404321 -23.460590 11.985907 14.085207 31.108507 2.383504 4.512774 7.999065 -1.386814 -0.175430 -1.020766 -0.108169 18.952666 14.428337 9.701744 7.679714 29.709213 -12.368612 11.507525 -27.907926 5.666309 1.256346 -4.076263 -5.491683
-26.337692 86.611107 160.151001 -17.043872 -10.899822 -1.563402 -11.674600 4.974231 -4.097907 -4.893348 2.552908 -1.631346 -4.893348 2.552908 -1.631346 -3.662617 1.927903 -1.202945 5.010933 21.794857 4.227439 7.870999 4.210491 6.232165 3.362680 -14.149036 1.031913 22.881293 -37.300198 43.833432 106.692062 -11.393996 25.777227 2.555440 2.247915 -11.576260 -22.269817 -12.860018 -2.267225 -29.750089 -64.303610 -13.977204 -30.880386 5.627327 -13.154972 -2.618784 3.895271 13.755992 0.441807 -22.944154 11.623690 13.724580 29.298616 2.077054 3.879906 8.185104 -1.158579 -0.061346 -0.614118 -0.026961 18.509211 14.373387 9.447520 7.261325 28.473209 -11.915587 11.556055 -27.834547 5.489115 0.988981 -2.562978 -4.118020
-26.279691 86.832075 160.209698 -15.651247 -10.698460 -1.412483 -11.440470 4.902434 -3.856867 -4.768853 2.543708 -1.525825 -4.768853 2.543708 -1.525825 -3.569724 1.919837 -1.124401 4.718086 21.666597 3.999041 7.403471 3.981127 5.897524 3.627163 -14.300053 0.935359 22.710745 -37.492445 43.804974 107.575456 -11.396732 25.130877 2.656465 2.302152 -11.741569 -21.583794 -13.389316 -2.778314 -27.984140 -64.350051 -18.064406 -35.597486 5.251640 -14.505423 -2.567395 4.271333 13.930019 0.309231 -22.529490 10.888635 13.564149 28.375266 1.890449 3.283161 8.205216 -0.980881 -0.051911 -0.520253 0.060154 17.804013 14.690215 8.881555 6.736959 27.261869 -11.524281 11.478971 -27.464111 5.423324 0.895698 -1.571666 -3.041071
